 <svg  version="1.0" xmlns="http://www.w3.org/2000/svg"  width="300.000000pt" height="300.000000pt" viewBox="0 0 300.000000 300.000000"  preserveAspectRatio="xMidYMid meet">  <g transform="translate(0.000000,300.000000) scale(0.100000,-0.100000)" fill="#f5f5f5" stroke="none"> <path d="M687 1808 c-9 -7 -21 -25 -26 -40 -6 -16 -18 -28 -28 -28 -14 0 -15 -2 -5 -9 11 -7 10 -16 -7 -50 -12 -23 -19 -47 -15 -53 4 -6 26 28 50 78 30 63 41 79 37 54 -4 -19 -11 -38 -16 -41 -5 -4 -7 -11 -3 -17 3 -6 0 -38 -8 -71 -10 -42 -11 -63 -4 -67 10 -7 33 16 41 39 5 15 111 21 135 8 13 -7 23 -7 27 -2 9 15 -29 31 -74 31 -23 0 -41 2 -41 4 0 2 16 38 36 80 20 42 34 80 30 84 -10 9 -21 -10 -58 -100 -18 -43 -35 -78 -39 -78 -12 0 -18 84 -9 130 10 50 2 66 -23 48z"/> <path d="M945 1810 c-27 -10 -49 -37 -37 -44 5 -3 17 3 27 14 44 49 46 9 5 -79 -17 -35 -28 -66 -25 -69 3 -3 28 20 56 52 55 60 70 67 45 18 -24 -47 -7 -45 41 6 37 39 43 43 37 22 -3 -14 -19 -46 -35 -71 -35 -55 -36 -61 -6 -57 14 2 22 10 22 23 0 11 10 36 23 55 38 60 21 102 -24 59 l-24 -22 0 21 c0 33 -25 27 -56 -13 -32 -42 -42 -40 -20 4 29 55 13 97 -29 81z"/> <path d="M2527 1731 c-47 -80 -55 -101 -37 -101 6 0 10 3 10 8 0 4 15 33 33 64 l32 56 29 -24 29 -25 -33 -28 c-19 -15 -29 -30 -23 -34 5 -3 26 11 47 32 l37 38 -36 24 c-28 19 -34 29 -30 47 10 42 -10 22 -58 -57z"/> <path d="M1603 1766 c-19 -35 -111 -121 -121 -112 -2 3 0 11 5 18 16 21 23 47 13 53 -13 8 -49 -70 -40 -85 6 -9 14 -8 34 5 23 16 26 16 26 1 0 -19 21 -21 37 -5 9 9 10 7 6 -10 -9 -36 17 -24 66 32 34 38 19 34 -20 -5 l-31 -33 7 30 c3 17 17 51 31 77 13 26 24 52 24 58 0 21 -20 9 -37 -24z"/> <path d="M1734 1768 c-36 -44 -57 -95 -50 -124 8 -32 38 -31 82 2 37 29 39 28 24 -10 -5 -14 -5 -28 0 -31 7 -4 30 46 30 68 0 4 7 23 15 43 17 40 19 64 7 64 -4 0 -14 -20 -21 -45 -10 -35 -23 -51 -59 -75 -25 -16 -49 -30 -54 -30 -23 0 7 95 38 121 12 10 13 9 8 -5 -10 -26 12 -18 24 9 25 55 -1 63 -44 13z"/> <path d="M1428 1775 c-3 -6 -10 -26 -17 -45 -8 -26 -23 -42 -56 -60 -24 -13 -47 -21 -51 -17 -11 10 26 46 41 41 13 -5 30 24 20 35 -10 10 -59 -23 -75 -51 -11 -21 -12 -30 -3 -39 9 -9 23 -5 57 14 48 27 52 25 36 -17 -5 -14 -5 -28 0 -31 7 -4 30 45 30 67 0 5 7 26 16 48 14 35 16 78 2 55z"/> <path d="M487 1739 l-38 -31 38 -33 c21 -18 42 -30 47 -27 5 3 -5 18 -23 33 l-33 27 31 23 c30 22 40 39 23 39 -4 0 -24 -14 -45 -31z"/> <path d="M2031 1695 c-12 -27 -22 -52 -22 -55 0 -3 -14 -19 -31 -37 -16 -17 -28 -37 -26 -44 2 -7 22 7 48 35 24 26 49 45 56 42 16 -6 35 16 39 46 1 13 6 31 10 41 4 10 3 17 -3 17 -6 0 -15 -15 -22 -34 -6 -18 -22 -44 -37 -57 l-25 -24 21 43 c12 24 21 51 19 60 -3 11 -13 -2 -27 -33z"/> <path d="M1221 1701 c-7 -11 -12 -11 -31 -1 -21 11 -26 10 -47 -14 -27 -32 -29 -44 -7 -53 11 -4 23 3 36 20 25 35 36 34 31 0 -5 -27 -4 -26 21 9 17 24 32 35 41 32 9 -4 15 0 15 9 0 19 -49 18 -59 -2z"/> <path d="M1973 1683 c-10 -20 -24 -39 -31 -41 -10 -3 -10 4 3 28 16 31 12 58 -4 31 -7 -10 -10 -10 -16 -1 -5 8 -18 1 -42 -22 l-34 -33 7 29 c5 21 3 27 -6 24 -7 -2 -14 -18 -15 -35 -2 -28 0 -30 26 -29 15 1 31 5 36 10 4 5 3 6 -4 2 -21 -12 -15 9 9 30 21 19 21 19 15 -4 -3 -13 -3 -30 0 -38 5 -13 9 -13 29 1 14 9 25 11 29 5 3 -6 12 -10 18 -10 8 0 8 3 -1 9 -12 7 -11 14 2 39 18 36 19 42 7 42 -5 0 -18 -17 -28 -37z"/> <path d="M2115 1703 c-11 -25 -11 -53 -1 -55 5 -2 10 4 12 12 2 8 6 25 10 38 8 26 -10 30 -21 5z"/> <path d="M2151 1694 c-13 -30 -15 -74 -2 -74 5 0 16 10 24 23 13 18 16 19 16 5 1 -20 26 -24 37 -6 5 8 2 9 -10 5 -14 -6 -15 -3 -6 13 15 28 28 25 28 -5 0 -36 9 -41 32 -20 11 10 20 13 20 7 0 -21 35 -12 70 18 43 36 36 39 -10 5 -39 -29 -51 -26 -20 5 17 17 19 25 10 34 -9 8 -19 2 -42 -26 -36 -46 -54 -50 -33 -7 9 17 13 34 9 37 -4 4 -9 1 -11 -6 -4 -9 -9 -10 -17 -3 -9 8 -24 1 -54 -25 -46 -39 -50 -38 -27 6 8 16 11 31 6 34 -4 3 -13 -6 -20 -20z"/> <path d="M1425 1690 c-3 -5 -1 -10 5 -10 7 0 8 -6 0 -19 -13 -25 -13 -34 1 -29 14 5 23 68 10 68 -6 0 -13 -4 -16 -10z"/> </g> </svg> 