<?xml version="1.0" standalone="no"?>
<!DOCTYPE svg PUBLIC "-//W3C//DTD SVG 20010904//EN"
 "http://www.w3.org/TR/2001/REC-SVG-20010904/DTD/svg10.dtd">
<svg version="1.0" xmlns="http://www.w3.org/2000/svg"
 width="300.000000pt" height="300.000000pt" viewBox="0 0 300.000000 300.000000"
 preserveAspectRatio="xMidYMid meet">
<metadata>
Created by potrace 1.10, written by Peter Selinger 2001-2011
</metadata>
<g transform="translate(0.000000,300.000000) scale(0.050000,-0.050000)"
fill="#ffffff" stroke="none">
<path d="M843 3713 c-13 -15 -68 -113 -122 -216 l-99 -187 -81 7 c-49 4 -81
-2 -81 -15 0 -12 32 -22 70 -22 85 0 85 4 8 -121 -70 -113 -100 -118 -121 -18
-27 135 43 261 128 228 17 -6 36 -3 43 7 16 27 -64 45 -116 25 -97 -37 -137
-258 -62 -341 60 -66 114 -28 189 133 36 75 50 87 104 87 70 0 69 26 10 -266
-15 -74 -19 -140 -10 -146 24 -15 60 11 46 34 -14 22 29 302 51 338 9 14 39
25 68 25 28 0 52 8 52 18 0 9 -25 17 -56 17 l-55 0 49 200 c49 199 43 283 -15
213z m-25 -239 c-41 -170 -43 -174 -101 -174 l-59 0 94 181 c112 218 118 217
66 -7z"/>
<path d="M1174 3725 c-30 -52 -192 -646 -199 -727 -7 -94 38 -96 212 -11 78
39 161 77 183 85 38 14 38 15 -5 23 -27 5 -98 -21 -174 -64 -213 -119 -210
-123 -118 219 79 295 114 399 141 427 15 14 21 34 15 45 -14 22 -43 24 -55 3z"/>
<path d="M3603 3655 c-171 -278 -185 -735 -23 -735 52 0 138 76 204 179 l59
91 -14 -78 c-11 -56 -8 -74 8 -64 13 8 23 25 23 38 0 67 85 165 102 119 19
-52 74 -60 91 -13 10 25 16 26 30 5 14 -22 22 -20 38 8 25 42 59 46 59 6 0
-47 40 -57 82 -20 111 101 159 37 62 -81 -76 -91 -123 -210 -124 -312 -1 -249
138 -57 190 262 15 91 51 148 114 182 31 17 33 13 16 -31 -29 -76 13 -82 52
-7 l34 65 18 -49 19 -50 26 48 c18 33 30 40 40 23 9 -13 32 -20 52 -15 21 6
41 -3 48 -21 10 -27 16 -26 50 4 35 32 38 32 51 -9 10 -32 25 -41 56 -33 23 6
53 2 67 -9 31 -27 89 3 146 75 62 79 30 84 -49 7 -98 -95 -141 -56 -63 55 60
87 64 105 26 105 -15 0 -47 -46 -70 -102 -43 -104 -87 -123 -99 -41 -8 52 -35
56 -62 8 -12 -19 -21 -26 -21 -15 -1 35 28 65 69 75 38 8 38 10 3 25 -27 12
-52 -1 -99 -52 -61 -65 -64 -66 -70 -23 -4 25 -18 45 -32 45 -14 0 -36 -20
-48 -45 l-21 -45 -2 45 c-1 54 -17 57 -54 10 -24 -31 -25 -28 -8 20 20 54 -5
81 -25 27 -6 -15 -40 -48 -76 -73 l-64 -46 12 63 c15 76 -9 84 -46 14 -37 -70
-61 -62 -47 15 15 75 -2 66 -50 -27 -42 -84 -83 -98 -83 -30 0 61 -13 64 -66
17 -39 -34 -39 -34 -16 10 13 25 37 45 53 45 16 0 29 9 29 20 0 53 -76 11
-127 -70 -60 -95 -93 -114 -93 -53 0 56 -23 67 -63 30 -21 -18 -37 -25 -37
-15 1 33 76 256 117 347 39 85 40 121 4 121 -21 0 -50 -76 -99 -255 -90 -333
-321 -595 -382 -434 -47 124 -8 386 85 566 87 170 123 96 75 -158 -19 -100
-15 -140 12 -114 21 22 54 310 40 363 -18 73 -80 67 -129 -13z m729 -699 c-39
-146 -71 -216 -98 -216 -28 0 2 135 58 258 63 139 83 118 40 -42z"/>
<path d="M2072 3663 c-18 -21 -60 -100 -92 -175 l-59 -138 0 104 c-2 200 -108
128 -212 -144 -90 -236 -85 -155 14 224 41 158 -23 194 -135 75 -77 -82 -120
-209 -89 -266 22 -43 95 -69 112 -41 6 10 -2 18 -17 18 -99 0 -81 168 29 273
86 82 87 56 10 -297 -39 -179 -77 -360 -85 -401 -23 -135 22 -79 77 95 56 178
183 481 221 527 41 49 50 -38 24 -227 -14 -99 -21 -184 -17 -189 16 -18 43 33
65 129 44 184 222 512 222 410 0 -29 -57 -400 -71 -460 -31 -138 -35 -285 -7
-276 17 6 26 31 22 62 -3 29 10 141 28 248 58 346 67 415 56 451 -14 46 -53
45 -96 -2z"/>
<path d="M2830 3633 c-16 -38 -46 -133 -67 -212 -47 -177 -183 -342 -183 -223
0 57 22 103 42 91 10 -6 18 -2 18 9 0 49 -44 39 -75 -19 -95 -173 -140 -194
-103 -51 25 102 16 131 -32 92 -35 -29 -39 -14 -9 42 11 21 15 48 8 59 -20 32
-67 -17 -85 -89 -16 -61 -74 -88 -74 -34 0 45 -40 47 -78 4 -86 -95 -9 -146
108 -72 102 64 149 66 132 5 -36 -129 -36 -135 -5 -147 20 -7 50 9 82 45 27
31 50 46 50 32 2 -45 77 -26 122 30 l45 55 -12 -50 c-6 -27 -18 -75 -25 -105
-22 -91 18 -61 68 50 30 66 51 94 58 75 28 -82 125 -77 125 6 0 11 -18 4 -40
-16 -34 -30 -40 -31 -40 -6 0 63 -54 82 -91 32 -19 -25 -30 -32 -24 -16 5 17
25 84 44 149 19 66 52 153 73 195 21 41 38 88 38 105 0 55 -41 33 -70 -36z"/>
<path d="M3274 3564 c-17 -43 -37 -110 -45 -150 -9 -49 -24 -74 -45 -74 -18 0
-66 -33 -108 -74 l-76 -74 0 68 c0 62 -3 66 -31 38 -55 -55 -3 -152 59 -111
43 28 50 28 60 1 9 -24 20 -25 54 -7 42 22 43 21 27 -54 -23 -109 -22 -177 1
-177 11 0 17 8 14 17 -13 40 59 373 105 483 28 66 50 136 51 155 0 60 -34 38
-66 -41z m-95 -269 c-1 -34 -50 -97 -65 -83 -15 15 27 108 49 108 9 0 17 -11
16 -25z"/>
<path d="M5689 3329 c-85 -105 -148 -197 -140 -205 8 -7 32 9 53 36 35 44 134
170 245 313 20 26 27 47 16 47 -11 0 -90 -86 -174 -191z"/>
<path d="M75 3354 c-67 -56 -69 -80 -7 -121 58 -38 88 -18 32 21 -53 37 -50
55 10 82 28 13 50 32 50 44 0 31 -24 23 -85 -26z"/>
<path d="M5860 3381 c0 -10 18 -24 40 -31 56 -18 50 -44 -20 -80 -33 -17 -60
-40 -60 -51 0 -28 13 -24 90 26 81 52 87 81 26 124 -51 35 -76 39 -76 12z"/>
</g>
</svg>
